<svg width="114" height="123" viewBox="0 0 114 123" fill="none" xmlns="http://www.w3.org/2000/svg">
<g clip-path="url(#clip0_4680_35)">
<path d="M39.01 79.72C37.63 79.72 36.52 78.39 36.52 76.75C36.52 75.11 37.64 73.78 39.01 73.78H52.64C54.02 73.78 55.13 75.11 55.13 76.75C55.13 78.39 54.01 79.72 52.64 79.72H39.01ZM85.66 67.41C93.32 67.41 100.25 70.51 105.27 75.53C110.29 80.55 113.39 87.48 113.39 95.14C113.39 102.8 110.29 109.73 105.27 114.75C100.25 119.77 93.32 122.87 85.66 122.87C78 122.87 71.07 119.77 66.05 114.75C61.03 109.73 57.93 102.8 57.93 95.14C57.93 87.48 61.03 80.55 66.05 75.53C71.07 70.51 78 67.41 85.66 67.41ZM83.54 82.17C83.54 80.8 84.65 79.69 86.02 79.69C87.39 79.69 88.5 80.8 88.5 82.17V95.09L98.16 100.81C99.34 101.5 99.73 103.02 99.03 104.2C98.34 105.38 96.82 105.77 95.64 105.07L84.89 98.7C84.09 98.29 83.54 97.46 83.54 96.49V82.17ZM101.77 79.04C97.65 74.92 91.95 72.37 85.66 72.37C79.37 72.37 73.67 74.92 69.55 79.04C65.43 83.16 62.88 88.86 62.88 95.15C62.88 101.44 65.43 107.14 69.55 111.26C73.67 115.38 79.37 117.93 85.66 117.93C91.95 117.93 97.65 115.38 101.77 111.26C105.89 107.14 108.44 101.44 108.44 95.15C108.44 88.86 105.89 83.16 101.77 79.04ZM44.1 109.94C45.74 109.94 47.07 111.27 47.07 112.91C47.07 114.55 45.74 115.88 44.1 115.88H6.92C5.02 115.88 3.29 115.1 2.03 113.85C0.78 112.6 0 110.87 0 108.97V6.92C0 5.01 0.78 3.29 2.03 2.03C3.28 0.78 5.01 0 6.92 0H91.82C93.72 0 95.45 0.78 96.71 2.03C97.96 3.28 98.74 5.01 98.74 6.92V54.2C98.74 55.84 97.41 57.17 95.77 57.17C94.13 57.17 92.8 55.84 92.8 54.2V6.92C92.8 6.66 92.69 6.42 92.51 6.24C92.33 6.06 92.09 5.95 91.83 5.95H6.92C6.66 5.95 6.41 6.06 6.24 6.24C6.05 6.41 5.94 6.65 5.94 6.92V108.97C5.94 109.23 6.05 109.48 6.23 109.65C6.41 109.83 6.65 109.94 6.91 109.94H44.1ZM19.12 72.49H26.57C27.11 72.49 27.55 72.93 27.55 73.47V80.92C27.55 81.46 27.11 81.9 26.57 81.9H19.12C18.58 81.9 18.14 81.46 18.14 80.92V73.47C18.15 72.92 18.59 72.49 19.12 72.49ZM19.12 21.49H26.57C27.11 21.49 27.55 21.93 27.55 22.47V29.92C27.55 30.46 27.11 30.9 26.57 30.9H19.12C18.58 30.9 18.14 30.46 18.14 29.92V22.47C18.15 21.93 18.59 21.49 19.12 21.49ZM39.01 28.72C37.63 28.72 36.52 27.39 36.52 25.75C36.52 24.11 37.64 22.78 39.01 22.78H74.47C75.85 22.78 76.96 24.11 76.96 25.75C76.96 27.39 75.84 28.72 74.47 28.72H39.01ZM22.17 56.14C21.53 56.65 20.61 56.52 19.96 55.89C19.89 55.84 19.82 55.78 19.75 55.71L16.63 52.49C15.98 51.81 16.13 50.68 16.97 49.96C17.81 49.24 19.02 49.2 19.68 49.88L21.38 51.63L26.85 47.23C27.58 46.64 28.7 46.9 29.34 47.8C29.98 48.7 29.9 49.91 29.17 50.5L22.17 56.14ZM37.37 53.65C35.99 53.65 34.88 52.32 34.88 50.68C34.88 49.04 36 47.71 37.37 47.71H72.83C74.21 47.71 75.32 49.04 75.32 50.68C75.32 52.32 74.2 53.65 72.83 53.65H37.37Z" fill="black"/>
</g>
<defs>
<clipPath id="clip0_4680_35">
<rect width="113.39" height="122.88" fill="white"/>
</clipPath>
</defs>
</svg>
